# xmcd CD database file
#
# Track frame offsets:
#	182
#	69997
#	114745
#	174422
#	230402
#
# Disc length: 3876 seconds
#
# Revision: 0
# Processed by: cddbd v1.5PL3 Copyright (c) Steve Scherf et al.
# Submitted via: CDex 1.50Beta7
#
DISCID=3a0f2205
DTITLE=JACKIE McLEAN - BEST
DYEAR=1900
DGENRE=Jazz
TTITLE0=SMILE
TTITLE1=GREAT RAIN STREET BLUES
TTITLE2=ON THE TRAIL
TTITLE3=STAR DANCER
TTITLE4=I REMEMBER YOU
EXTD=
EXTT0=
EXTT1=
EXTT2=
EXTT3=
EXTT4=
PLAYORDER=
